# xmcd
#
# Track frame offsets: 
#        150
#        32812
#        43947
#        62392
#        78542
#        93485
#        108382
#        121330
#        139420
#        157035
#        168600
#        181955
#        194805
#        203325
#        222567
#        238657
#        249787
#        269747
#        334010
#
# Disc length: 4682 seconds
#
# Revision: 12
# Processed by: cddbd v1.5.2PL0 Copyright (c) Steve Scherf et al.
# Submitted via: ExactAudioCopy v0.99pb5
#
DISCID=1f124813
DTITLE=The Doors - The Best Of The Doors - Disc 2
DYEAR=2000
DGENRE=Rock
TTITLE0=Riders On The Storm
TTITLE1=Break On Through
TTITLE2=Roadhouse Blues
TTITLE3=Soul Kitchen
TTITLE4=Love Her Madly
TTITLE5=Alabama Song
TTITLE6=Peace Frog
TTITLE7=Waiting For The Sun
TTITLE8=Who Scared You
TTITLE9=The Crystal Ship
TTITLE10=Wishful Sinful
TTITLE11=Love Street
TTITLE12=Wintertime Love
TTITLE13=The Spy
TTITLE14=Back Door Man
TTITLE15=My Eyes Have Seen You
TTITLE16=Five To One
TTITLE17=The End
TTITLE18=DATA
EXTD=YEAR: 2000 ID3G: 87
EXTT0=
EXTT1=
EXTT2=
EXTT3=
EXTT4=
EXTT5=
EXTT6=
EXTT7=
EXTT8=
EXTT9=
EXTT10=
EXTT11=
EXTT12=
EXTT13=
EXTT14=
EXTT15=
EXTT16=
EXTT17=
EXTT18=
PLAYORDER=
